<svg width="64" height="64" viewBox="0 0 64 64" fill="none" xmlns="http://www.w3.org/2000/svg">
  <rect x="10" y="10" width="44" height="44" rx="14" fill="#FA8C16"/>
  <path d="M32 19C34.4853 19 36.5 21.0147 36.5 23.5C36.5 25.9853 34.4853 28 32 28C29.5147 28 27.5 25.9853 27.5 23.5C27.5 21.0147 29.5147 19 32 19Z" fill="#EAF4FF"/>
  <path d="M27.5 33C27.5 32.1716 28.1716 31.5 29 31.5H34.25C35.0784 31.5 35.75 32.1716 35.75 33V45C35.75 45.8284 35.0784 46.5 34.25 46.5H29.75C28.9216 46.5 28.25 45.8284 28.25 45V35.5H29C29.8284 35.5 30.5 34.8284 30.5 34C30.5 33.1716 29.8284 32.5 29 32.5H29C28.1716 32.5 27.5 33.1716 27.5 34V33Z" fill="#EAF4FF"/>
</svg>
